<svg width="14" height="14" viewBox="0 0 14 14" fill="none" xmlns="http://www.w3.org/2000/svg">
<path d="M13.7278 11.1322L12.1757 10.0975L10.796 9.17782C10.5297 9.00066 10.1719 9.05874 9.97532 9.31107L9.12158 10.4086C8.93818 10.6468 8.60829 10.7152 8.3453 10.5696C7.766 10.2474 7.08096 9.94396 5.56947 8.43053C4.05798 6.91709 3.75263 6.234 3.43039 5.6547C3.28479 5.39171 3.35323 5.06182 3.59139 4.87845L4.68893 4.02471C4.94123 3.82816 4.99933 3.47032 4.82217 3.20402L3.93077 1.86679L2.86774 0.272232C2.68681 0.000820869 2.32462 -0.0806626 2.0449 0.0870894L0.818924 0.822573C0.487603 1.01778 0.244054 1.33299 0.138727 1.70287C-0.196531 2.9252 -0.264124 5.62162 4.05724 9.94297C8.3786 14.2643 11.0748 14.1965 12.2971 13.8612C12.667 13.7559 12.9822 13.5124 13.1774 13.181L13.9129 11.9551C14.0807 11.6753 13.9992 11.3132 13.7278 11.1322Z" fill="#1F2330"/>
</svg>
