 <svg xmlns="http://www.w3.org/2000/svg">

    <symbol id="arr-right" viewBox="0 0 14 14">
        <path d="M6 12.6562L11.6569 6.9994L6 1.34254" stroke-width="2" />
    </symbol>

    <symbol id="download" viewBox="0 0 16 16">
        <path d="M7.41466 12.4472C7.49151 12.5241 7.58274 12.5851 7.68315 12.6266C7.78357 12.6682 7.89118 12.6897 7.99987 12.6897C8.10855 12.6897 8.21617 12.6682 8.31658 12.6266C8.41699 12.5851 8.50823 12.5241 8.58508 12.4472L11.7061 9.32624C11.8613 9.17104 11.9485 8.96054 11.9485 8.74105C11.9485 8.52156 11.8613 8.31106 11.7061 8.15586C11.5509 8.00066 11.3404 7.91347 11.1209 7.91347C10.9014 7.91347 10.6909 8.00066 10.5357 8.15586L8.82745 9.8641V0.827586C8.82745 0.608097 8.74026 0.397597 8.58506 0.242394C8.42986 0.0871919 8.21936 0 7.99987 0C7.78038 0 7.56988 0.0871919 7.41468 0.242394C7.25947 0.397597 7.17228 0.608097 7.17228 0.827586V9.8641L5.46404 8.15586C5.30884 8.00066 5.09834 7.91347 4.87885 7.91347C4.65936 7.91347 4.44886 8.00066 4.29366 8.15586C4.13846 8.31106 4.05127 8.52156 4.05127 8.74105C4.05127 8.96054 4.13846 9.17104 4.29366 9.32624L7.41466 12.4472Z"/>
        <path d="M15.1724 7.17188C14.9529 7.17188 14.7424 7.25907 14.5872 7.41427C14.432 7.56947 14.3448 7.77997 14.3448 7.99946V14.3443H1.65517V7.99946C1.65517 7.77997 1.56798 7.56947 1.41278 7.41427C1.25758 7.25907 1.04708 7.17188 0.827586 7.17188C0.608097 7.17188 0.397597 7.25907 0.242394 7.41427C0.0871919 7.56947 0 7.77997 0 7.99946V14.6202C0 14.986 0.14532 15.3368 0.403991 15.5955C0.662661 15.8541 1.01349 15.9995 1.37931 15.9995H14.6207C14.9865 15.9995 15.3373 15.8541 15.596 15.5955C15.8547 15.3368 16 14.986 16 14.6202V7.99946C16 7.77997 15.9128 7.56947 15.7576 7.41427C15.6024 7.25907 15.3919 7.17188 15.1724 7.17188Z"/>    
    </symbol>

    <symbol id="phone" viewBox="0 0 14 14">
        <path d="M13.7278 11.1322L12.1757 10.0975L10.796 9.17782C10.5297 9.00066 10.1719 9.05874 9.97532 9.31107L9.12158 10.4086C8.93818 10.6468 8.60829 10.7152 8.3453 10.5696C7.766 10.2474 7.08096 9.94396 5.56947 8.43053C4.05798 6.91709 3.75263 6.234 3.43039 5.6547C3.28479 5.39171 3.35323 5.06182 3.59139 4.87845L4.68893 4.02471C4.94123 3.82816 4.99933 3.47032 4.82217 3.20402L3.93077 1.86679L2.86774 0.272232C2.68681 0.000820869 2.32462 -0.0806626 2.0449 0.0870894L0.818924 0.822573C0.487603 1.01778 0.244054 1.33299 0.138727 1.70287C-0.196531 2.9252 -0.264124 5.62162 4.05724 9.94297C8.3786 14.2643 11.0748 14.1965 12.2971 13.8612C12.667 13.7559 12.9822 13.5124 13.1774 13.181L13.9129 11.9551C14.0807 11.6753 13.9992 11.3132 13.7278 11.1322Z"/>

    </symbol>

   <symbol id="email" viewBox="0 0 17 12">
        <path d="M11.2689 5.93042L17 9.55355V2.1543L11.2689 5.93042Z"/>
        <path d="M0 2.1543V9.55355L5.73112 5.93042L0 2.1543Z"/>
        <path d="M15.9374 0H1.06236C0.532176 0 0.111426 0.39525 0.0317383 0.904187L8.49986 6.48337L16.968 0.904187C16.8883 0.39525 16.4675 0 15.9374 0Z"/>
        <path d="M10.2957 6.57333L8.79224 7.56358C8.70299 7.62202 8.60206 7.6507 8.50006 7.6507C8.39806 7.6507 8.29712 7.62202 8.20787 7.56358L6.70443 6.57227L0.0340576 10.7915C0.11587 11.2961 0.534495 11.6882 1.06256 11.6882H15.9376C16.4656 11.6882 16.8842 11.2961 16.9661 10.7915L10.2957 6.57333Z"/>
    </symbol>
   
   <symbol id="clock" viewBox="0 0 14 14">
        <path d="M7 0C3.14005 0 0 3.14005 0 7C0 10.86 3.14005 14 7 14C10.86 14 14 10.86 14 7C14 3.14005 10.86 0 7 0ZM10.3291 10.6207C10.2153 10.7345 10.066 10.7917 9.9167 10.7917C9.76738 10.7917 9.61795 10.7345 9.5043 10.6207L6.5876 7.7041C6.47791 7.59505 6.4167 7.44679 6.4167 7.2917V3.5C6.4167 3.17743 6.67796 2.9167 7 2.9167C7.32204 2.9167 7.5833 3.17743 7.5833 3.5V7.0502L10.3291 9.7959C10.5571 10.024 10.5571 10.3927 10.3291 10.6207Z"/>
    
    </symbol>

    <symbol id="pencil" viewBox="0 0 19 19">
        <path d="M6.83616 16.2485L2.75346 12.1658L12.6282 2.29106L16.7109 6.37376L6.83616 16.2485ZM2.37183 12.885L6.117 16.6301L0.501953 18.5L2.37183 12.885ZM17.9666 5.12343L17.2585 5.83158L13.1704 1.74347L13.8785 1.03532C14.5919 0.321559 15.7486 0.321559 16.462 1.03532L17.9666 2.54C18.6748 3.25571 18.6748 4.40794 17.9666 5.12343Z"/>
    </symbol>

    <symbol id="marker" viewBox="0 0 10 13">
        <path d="M9.38889 4.69444C9.38889 7.28711 4.69444 13 4.69444 13C4.69444 13 0 7.28711 0 4.69444C0 2.10177 2.10177 0 4.69444 0C7.28712 0 9.38889 2.10177 9.38889 4.69444Z"/>
        <circle cx="4.69488" cy="4.69488" r="2.34722" fill="#FDFDFD"/>
    </symbol>
        
    <symbol id="full-screen" viewBox="0 0 15 15"> 
        <path d="M2.00095 1.17185H4.83436V0H0.000488281V4.83387H1.17234V2.00046L5.18591 6.01404L6.01453 5.18542L2.00095 1.17185Z"/>
        <path d="M6.01404 9.81494L5.18542 8.98633L1.17185 12.9999V10.1665H0V15.0004H4.83387V13.8285H2.00046L6.01404 9.81494Z"/>
        <path d="M10.166 0V1.17185H12.9994L8.98584 5.18542L9.81445 6.01404L13.828 2.00046V4.83387H14.9999V0H10.166Z"/>
        <path d="M13.828 10.1665V12.9999L9.81445 8.98633L8.98584 9.81494L12.9994 13.8285H10.166V15.0004H14.9999V10.1665H13.828Z"/>
    </symbol>


    <symbol>
        
    </symbol>
</svg>

