<svg width="51" height="52" viewBox="0 0 51 52" fill="none" xmlns="http://www.w3.org/2000/svg">
<path d="M50.9266 12.0858L49.2638 6.86663C49.1792 6.63387 48.9508 6.34071 48.549 6.34421H43.7976C43.3832 6.34421 43.0474 6.67998 43.0474 7.09438C43.0474 7.50877 43.3832 7.84454 43.7976 7.84454H46.7378L42.5476 12.0348L38.3575 7.84454H40.2968C40.7112 7.84454 41.0469 7.50877 41.0469 7.09438C41.0469 6.67998 40.7112 6.34421 40.2968 6.34421H36.6631L15.7645 0.0307181C15.5664 -0.0270947 15.3185 -0.00929075 15.1153 0.135741L7.18088 5.72877C6.96003 5.20926 6.44462 4.84388 5.84539 4.84388H1.45032C0.650643 4.84388 0 5.49452 0 6.2942V13.8959C0 14.6955 0.650643 15.3462 1.45032 15.3462H5.84539C6.64506 15.3462 7.29571 14.6955 7.29571 13.8959V13.8459H11.7967V35.7833C11.7967 36.1977 12.1325 36.5335 12.5469 36.5335C12.9613 36.5335 13.297 36.1977 13.297 35.7833V32.9167L17.4873 37.1069L13.297 41.2971V39.2842C13.297 38.8698 12.9613 38.534 12.5469 38.534C12.1325 38.534 11.7967 38.8698 11.7967 39.2842V42.688L6.48813 45.9395C6.06094 46.2013 5.79538 46.6751 5.79538 47.1762V49.7597C5.79538 50.5594 6.44602 51.21 7.2457 51.21H23.8494C24.649 51.21 25.2997 50.5594 25.2997 49.7597V47.1762C25.2997 46.6751 25.0342 46.2013 24.6068 45.9395L19.2984 42.688V13.8459H29.8007V15.7759C29.8007 16.5756 30.4513 17.2262 31.251 17.2262H33.9602V26.729C33.9541 27.6142 34.7717 28.2912 35.6503 28.1793V34.0788C35.6503 34.7661 36.102 35.3608 36.7742 35.5588C37.3626 35.7319 37.7508 36.2826 37.7181 36.898C37.6816 37.586 37.0908 38.1444 36.4001 38.1444H36.3965C35.9601 38.1432 35.5528 37.9263 35.3072 37.5642C35.0744 37.2211 34.6078 37.1318 34.2653 37.3644C33.9224 37.597 33.833 38.0635 34.0655 38.4064C34.5897 39.1792 35.4596 39.6422 36.3924 39.6447H36.3999C37.8754 39.6447 39.1381 38.4498 39.2162 36.9777C39.286 35.6651 38.456 34.4898 37.1978 34.1195C37.1708 34.1115 37.1505 34.0941 37.1505 34.0789V28.1794C38.0143 28.2491 38.8473 27.6529 38.8407 26.7291V17.2263H41.8473C42.647 17.2263 43.2976 16.5757 43.2976 15.776V13.846H49.6398C50.0691 13.846 50.4767 13.639 50.73 13.2924C50.9832 12.9459 51.057 12.4947 50.9266 12.0858ZM5.79538 13.8459H1.50033V6.34421H5.79538V13.8459ZM40.7365 12.3455H32.3619L36.5492 8.15831L40.7365 12.3455ZM31.475 6.34421H19.0233L16.948 1.95564L31.475 6.34421ZM15.5475 2.50366L17.3636 6.34421H13.7314L15.5475 2.50366ZM13.6518 3.00297L12.0718 6.34421H8.91186L13.6518 3.00297ZM7.29571 7.84454H10.7358L7.29571 11.2846V7.84454ZM8.35674 12.3455L12.547 8.15531L16.7372 12.3455H8.35674ZM13.297 17.2906V13.8459H16.7384L13.297 17.2906ZM17.798 14.908V23.293L13.6075 19.1025L17.798 14.908ZM13.297 20.914L17.4873 25.1042L13.297 29.2945V20.914ZM13.6079 31.1056L17.7981 26.9153V35.2957L13.6079 31.1056ZM17.798 38.918V42.358H14.358L17.798 38.918ZM23.7993 47.2042V49.7097H7.29571V47.2042L12.7583 43.8584H18.3366L23.7993 47.2042ZM18.5468 12.0333L14.3581 7.84454H22.7355L18.5468 12.0333ZM20.3564 12.3455L24.548 8.15391L28.7396 12.3455H20.3564ZM30.5508 12.0348L26.3606 7.84454H34.741L30.5508 12.0348ZM37.3405 26.679H35.4605V17.2262H37.3405V26.679ZM41.7975 15.7259H31.301V13.8459H41.7974V15.7259H41.7975ZM44.3588 12.3455L48.2082 8.49608L49.4347 12.3455H44.3588Z" fill="#D4321E"/>
</svg>
