<svg width="55" height="53" viewBox="0 0 55 53" fill="none" xmlns="http://www.w3.org/2000/svg">
<path d="M25.6418 30.3848C24.0684 29.8013 22.9434 28.25 22.9434 26.4279C22.9434 24.106 24.7703 22.2238 27.0239 22.2238C29.2775 22.2238 31.1044 24.106 31.1044 26.4279C31.1044 28.25 29.9794 29.8013 28.406 30.3848" stroke="#D4321E" stroke-width="2"/>
<path d="M5.94175 26.9854C5.94175 21.4756 8.26181 15.7794 11.7224 12.0235M5.94175 26.9854L22.9438 26.9854M5.94175 26.9854C5.94175 31.4405 7.32366 35.5729 9.6822 38.9773M5.94175 26.9854L1.03883 26.9854M27.0243 5.90288L27.0243 21.8847M27.0243 5.90288C20.8905 5.90288 15.575 7.84224 11.7224 12.0235M27.0243 5.90288C33.158 5.90288 38.1335 7.84224 41.9861 12.0235M27.0243 5.90288L27.0243 0.999997M48.1068 26.9854C48.1068 21.4756 45.4467 15.7794 41.9861 12.0235M48.1068 26.9854L31.1048 26.9854M48.1068 26.9854C48.1068 31.4406 46.7249 35.5729 44.3664 38.9773M48.1068 26.9854L53.5 26.9854M19.8834 46.8279L25.5534 30.4175M19.8834 46.8279C15.718 45.3286 12.1608 42.5549 9.6822 38.9773M19.8834 46.8279L18.199 51.5M34.1651 46.8279L28.4951 30.4175M34.1651 46.8279C38.3306 45.3286 41.8878 42.555 44.3664 38.9773M34.1651 46.8279L35.8495 51.5M11.7224 12.0235L23.6239 23.5849M11.7224 12.0235L7.90291 8.35423M41.9861 12.0235L30.0846 23.5849M41.9861 12.0235L45.6553 8.35423M9.6822 38.9773L23.5922 28.9466M9.6822 38.9773L5.45146 42.1845M44.3664 38.9773L30.4563 28.9466M44.3664 38.9773L49.0874 42.6748" stroke="#D4321E" stroke-width="2" stroke-linecap="round" stroke-linejoin="round"/>
</svg>
