<svg width="57" height="50" viewBox="0 0 57 50" fill="none" xmlns="http://www.w3.org/2000/svg">
<path d="M1.00745 1.50029C1.00771 1.22404 1.23198 1.00036 1.50823 1.00077C7.57294 1.00984 13.6377 1.00788 19.7034 1.00166C19.9794 1.00137 20.2034 1.22471 20.2039 1.50068C20.2165 8.70732 20.1959 15.915 20.2136 23.1216C20.214 23.2861 20.2954 23.4398 20.431 23.5329C23.8874 25.9045 27.2955 28.3453 30.7384 30.7362C34.4847 33.3561 38.2263 35.9829 41.9726 38.604C42.9219 39.2358 43.4606 40.4176 43.2916 41.5495C43.1226 43.0625 41.6709 44.2908 40.1465 44.1876C39.2925 44.1899 38.5609 43.7113 37.9054 43.219C35.7612 41.7068 33.6045 40.2126 31.4608 38.7004C31.1284 38.4659 30.6691 38.7045 30.6698 39.1113C30.6744 41.6568 30.6591 44.2023 30.6748 46.7478C30.6765 47.0225 30.9 47.2441 31.1748 47.2439C36.364 47.2401 41.5532 47.244 46.7424 47.2422C47.0184 47.2421 47.2421 47.0184 47.2421 46.7424C47.2428 43.2969 47.2402 39.8523 47.2427 36.4069C47.2429 36.1317 47.0207 35.9079 46.7454 35.9071C45.6242 35.9036 44.5035 35.9082 43.3823 35.9061C43.1088 35.9055 42.8864 35.6849 42.8829 35.4114C42.8795 35.1496 42.8768 34.8876 42.8791 34.6257C42.8815 34.3556 43.1048 34.1427 43.375 34.1445C45.0732 34.156 46.7721 34.1574 48.4703 34.1442C48.747 34.142 48.9732 34.3646 48.9748 34.6412C48.9986 38.676 48.9822 42.7108 48.9828 46.7447C48.9829 47.0184 49.2031 47.2413 49.4769 47.2425C50.0175 47.245 50.5584 47.2425 51.0994 47.2423C51.3765 47.2423 51.6016 47.0178 51.6014 46.7407C51.5961 40.6783 51.5932 34.6158 51.6022 28.5533C51.6026 28.2783 51.8252 28.0552 52.1002 28.0552C52.9342 28.0551 53.7678 28.0611 54.6012 28.054C54.8736 28.0517 55.0925 27.83 55.0932 27.5576C55.099 25.2697 55.0912 22.9819 55.0961 20.694C55.0967 20.4169 54.8721 20.192 54.595 20.1925C45.6236 20.2078 36.6523 20.1945 27.6799 20.1993C27.4018 20.1994 27.1773 20.4265 27.1792 20.7046C27.1848 21.5351 27.183 22.366 27.1794 23.1966C27.1782 23.4695 26.9582 23.6909 26.6853 23.6918C26.4369 23.6927 26.1884 23.6925 25.9402 23.693C25.6638 23.6934 25.438 23.4708 25.437 23.1944C25.4321 21.7821 25.4428 20.3698 25.4327 18.9574C25.4307 18.6791 25.6555 18.4518 25.9339 18.4519C36.0737 18.455 46.2125 18.4519 56.3513 18.4539C56.6277 18.454 56.8516 18.6783 56.8512 18.9547C56.8462 22.4014 56.8426 25.8491 56.8517 29.2959C56.8524 29.5707 56.6313 29.7947 56.3565 29.7961C55.522 29.8001 54.6876 29.7953 53.8531 29.7952C53.5778 29.7952 53.355 30.0185 53.3546 30.2937C53.3473 36.3625 53.362 42.4314 53.3485 48.5001C53.3479 48.7762 53.1236 48.9995 52.8475 48.9989C41.0938 48.9745 29.3412 48.9954 17.5875 48.9887C12.2281 48.9931 6.8686 48.9804 1.50811 48.9941C1.23234 48.9948 1.00798 48.7722 1.0069 48.4964C0.993317 45.0459 1.00923 41.5945 1.00132 38.1439C1.00069 37.8675 1.22418 37.643 1.50053 37.643C1.75251 37.6431 2.00454 37.6434 2.25672 37.6432C2.53424 37.6431 2.75953 37.8682 2.75881 38.1458C2.7514 41.0099 2.75812 43.875 2.75616 46.7401C2.75597 47.0161 2.97938 47.2401 3.25539 47.2405C8.1522 47.2478 13.05 47.2374 17.9478 47.2446C18.2237 47.245 18.4479 47.0219 18.4485 46.746C18.4552 43.8777 18.4502 41.0102 18.4505 38.1419C18.4505 37.8654 18.675 37.6415 18.9514 37.6414C19.2038 37.6412 19.4563 37.6407 19.7087 37.6404C19.9852 37.64 20.2093 37.8645 20.2088 38.141C20.204 41.0064 20.2099 43.8719 20.206 46.7382C20.2056 47.0136 20.4279 47.2376 20.7034 47.2388C23.2744 47.2499 25.8446 47.2392 28.4148 47.2414C28.6918 47.2416 28.9163 47.0169 28.9157 46.7399C28.9091 43.5528 28.9183 40.3658 28.9129 37.1797C28.9126 37.0168 28.8329 36.8642 28.6993 36.7708C26.1287 34.974 23.5647 33.1697 20.9926 31.3777C20.6619 31.1474 20.2089 31.3831 20.2079 31.786C20.2057 32.638 20.2053 33.4902 20.2103 34.3419C20.2113 34.5065 20.1314 34.6612 19.9965 34.7555C16.9546 36.8819 13.925 39.0272 10.8682 41.1326C10.6954 41.2516 10.4668 41.2499 10.2956 41.1286C7.28237 38.9932 4.25038 36.8836 1.21895 34.7745C1.08462 34.681 1.00453 34.5277 1.00451 34.3641C1.00332 23.4088 0.996883 12.4545 1.00745 1.50029ZM3.25713 2.75666C2.98 2.75617 2.75532 2.98113 2.7557 3.25827C2.75726 4.37758 2.75328 5.49688 2.7562 6.61619C2.75691 6.89164 2.98077 7.11416 3.25621 7.1139C6.99178 7.11039 10.7265 7.11398 14.462 7.11239C14.7394 7.11227 14.9639 7.33796 14.9633 7.61536C14.9629 7.86171 14.9629 8.10813 14.9633 8.35469C14.9636 8.63111 14.7398 8.85552 14.4634 8.85566C10.7285 8.85757 6.99272 8.85757 3.25686 8.85566C2.98072 8.85552 2.75673 9.07925 2.7566 9.35539C2.75364 15.3564 2.75683 21.3564 2.75572 27.3574C2.7667 29.3976 2.73626 31.4389 2.76819 33.4782C2.77024 33.6093 2.82268 33.736 2.92445 33.8186C3.14302 33.9962 3.39029 34.1383 3.61771 34.3054C5.81577 35.8468 8.01723 37.3836 10.2119 38.9295C10.3742 39.0238 10.5694 39.2496 10.7493 39.1086C10.7815 39.0833 10.8106 39.0537 10.8441 39.0301C13.307 37.2952 15.7855 35.5821 18.2438 33.8409C18.3758 33.7474 18.4543 33.5959 18.4544 33.4342C18.4562 31.7616 18.4404 30.089 18.4542 28.4177C18.4575 28.0172 18.9079 27.7864 19.2364 28.0156C25.948 32.6999 32.6477 37.4012 39.3526 42.0951C39.6804 42.34 40.0887 42.5181 40.5061 42.4217C41.2852 42.3037 41.7945 41.3771 41.4792 40.6546C41.3215 40.1976 40.869 39.9741 40.5027 39.711C36.2166 36.7009 31.9191 33.7066 27.6342 30.6953C26.1415 29.6245 22.9509 27.3968 22.9319 27.3836C22.9313 27.3831 22.9323 27.3839 22.9317 27.3835C22.9138 27.3708 18.6712 24.3816 16.1636 22.6716C15.9295 22.5119 15.8743 22.1904 16.0367 21.9581C16.1806 21.7523 16.3226 21.5451 16.4668 21.3395C16.6268 21.1113 16.9434 21.0654 17.169 21.2291C17.3318 21.3473 17.4958 21.464 17.6604 21.5799C17.9911 21.8129 18.4481 21.575 18.4486 21.1704C18.4562 15.1996 18.448 9.22969 18.4525 3.25887C18.4527 2.98238 18.2285 2.75819 17.952 2.75842C13.0534 2.76259 8.15574 2.76541 3.25713 2.75666Z" fill="#D4321E" stroke="#D4321E" stroke-width="0.2"/>
<path d="M9.36221 13.2261C9.08701 13.2261 8.86274 13.004 8.86014 12.7288C8.85764 12.4647 8.8561 12.2007 8.861 11.9366C8.86598 11.6685 9.08995 11.4603 9.35811 11.4636C10.1863 11.4739 11.0144 11.4781 11.8426 11.4661C12.1145 11.4621 12.3416 11.6742 12.3456 11.9461C12.3494 12.2043 12.3487 12.4626 12.3485 12.7207C12.3482 12.9982 12.1241 13.2248 11.8466 13.2252C11.0186 13.2266 10.1902 13.2258 9.36221 13.2261Z" fill="#D4321E" stroke="#D4321E" stroke-width="0.2"/>
<path d="M8.8619 16.329C8.86201 16.055 9.08401 15.8342 9.35803 15.8341C10.1889 15.8337 11.0197 15.8344 11.8506 15.8358C12.1256 15.8363 12.3484 16.0588 12.3477 16.3338C12.3471 16.578 12.346 16.8223 12.3464 17.0666C12.3468 17.3461 12.1207 17.5745 11.8411 17.5759C11.0084 17.5801 10.175 17.597 9.34289 17.5745C9.06064 17.5668 8.84621 17.3219 8.85441 17.0397C8.86128 16.8028 8.86181 16.5658 8.8619 16.329Z" fill="#D4321E" stroke="#D4321E" stroke-width="0.2"/>
<path d="M8.86234 20.689C8.86442 20.413 9.09207 20.1933 9.36805 20.1959C10.195 20.2035 11.0219 20.1978 11.8488 20.1951C12.1251 20.1942 12.3492 20.4181 12.3483 20.6945C12.3474 20.9455 12.3462 21.1967 12.346 21.4479C12.3457 21.7252 12.1214 21.9508 11.8441 21.9504C11.0175 21.9492 10.191 21.9459 9.36495 21.9505C9.08841 21.952 8.862 21.7298 8.86107 21.4532C8.86022 21.1984 8.86043 20.9436 8.86234 20.689Z" fill="#D4321E" stroke="#D4321E" stroke-width="0.2"/>
<path d="M8.86184 25.0596C8.8622 24.7815 9.08955 24.5574 9.36759 24.5594C10.1932 24.5652 11.0189 24.5624 11.8445 24.559C12.1229 24.5579 12.3482 24.7844 12.346 25.0628C12.344 25.3065 12.3428 25.5502 12.3443 25.794C12.3461 26.0773 12.1172 26.3103 11.8338 26.3086C11.0108 26.3038 10.1874 26.3059 9.36434 26.3106C9.088 26.3122 8.86249 26.0896 8.86193 25.8133C8.86142 25.5621 8.86151 25.3108 8.86184 25.0596Z" fill="#D4321E" stroke="#D4321E" stroke-width="0.2"/>
<path d="M8.86086 29.417C8.86241 29.1397 9.08939 28.9163 9.36668 28.9178C10.1931 28.9222 11.0196 28.9187 11.846 28.9197C12.1229 28.92 12.3462 29.1459 12.346 29.4228C12.3458 29.6732 12.3467 29.9236 12.3476 30.174C12.3486 30.4507 12.1243 30.6752 11.8476 30.674C11.0206 30.6705 10.1937 30.6625 9.3673 30.674C9.09465 30.6779 8.86668 30.4651 8.86263 30.1924C8.8588 29.9339 8.85941 29.6755 8.86086 29.417Z" fill="#D4321E" stroke="#D4321E" stroke-width="0.2"/>
<path d="M8.86043 33.7828C8.86155 33.5089 9.08418 33.2881 9.35804 33.2875C10.1879 33.2855 11.0177 33.2832 11.8476 33.2881C12.1252 33.2897 12.3475 33.5182 12.3467 33.7959C12.3461 34.0418 12.3472 34.2877 12.348 34.5338C12.3488 34.8092 12.1254 35.0318 11.85 35.0319C11.0195 35.0321 10.1891 35.0327 9.35918 35.0329C9.08532 35.033 8.86226 34.8127 8.86083 34.5388C8.85951 34.2867 8.85941 34.0347 8.86043 33.7828Z" fill="#D4321E" stroke="#D4321E" stroke-width="0.2"/>
</svg>
