<svg width="47" height="47" viewBox="0 0 47 47" fill="none" xmlns="http://www.w3.org/2000/svg">
<path d="M11.5437 28.8862L9.07488 27.4608L7.74805 29.7589L10.2145 31.1829C10.0452 31.8942 10.0449 32.6222 10.2145 33.3343L7.74805 34.7584L9.07488 37.0565L11.5437 35.6311C12.065 36.124 12.6996 36.4979 13.4044 36.7084V39.5562H16.0581V36.7084C16.7629 36.4979 17.3976 36.124 17.9189 35.631L20.3877 37.0565L21.7146 34.7584L19.248 33.3342C19.4174 32.6231 19.4177 31.8951 19.248 31.1829L21.7146 29.7588L20.3877 27.4607L17.9189 28.8861C17.3975 28.3931 16.7629 28.0193 16.0581 27.8088V24.9609H13.4044V27.8088C12.6997 28.0194 12.065 28.3931 11.5437 28.8862ZM16.7215 32.2586C16.7215 33.356 15.8287 34.2489 14.7313 34.2489C13.6339 34.2489 12.741 33.356 12.741 32.2586C12.741 31.1611 13.6339 30.2684 14.7313 30.2684C15.8287 30.2684 16.7215 31.1611 16.7215 32.2586Z" fill="#D4321E" stroke="#FDFDFD" stroke-width="0.5"/>
<path d="M35.4551 18.0938L37.9239 19.5192L39.2507 17.2211L36.7842 15.797C36.9536 15.0858 36.9539 14.3578 36.7842 13.6456L39.2507 12.2216L37.9239 9.9235L35.4551 11.3489C34.9337 10.8559 34.2991 10.4821 33.5943 10.2716V7.42383H30.9407V10.2717C30.2358 10.4822 29.6013 10.856 29.0799 11.349L26.611 9.92359L25.2842 12.2217L27.7508 13.6458C27.5814 14.357 27.5811 15.085 27.7508 15.7971L25.2842 17.2213L26.611 19.5193L29.0799 18.094C29.6013 18.5869 30.2358 18.9607 30.9407 19.1713V22.0191H33.5943V19.1713C34.2991 18.9606 34.9338 18.5868 35.4551 18.0938ZM30.2772 14.7214C30.2772 13.624 31.1701 12.7312 32.2675 12.7312C33.3649 12.7312 34.2577 13.624 34.2577 14.7214C34.2577 15.8188 33.3649 16.7117 32.2675 16.7117C31.1701 16.7117 30.2772 15.8188 30.2772 14.7214Z" fill="#D4321E" stroke="#FDFDFD" stroke-width="0.5"/>
<path d="M45.9959 14.7213C45.9959 11.0544 44.5679 7.60703 41.9751 5.01431C36.6227 -0.338058 27.9137 -0.338146 22.5613 5.01431C17.1967 10.3788 17.1958 19.0628 22.5613 24.4281C26.889 28.7559 26.8896 35.7609 22.5613 40.0892C18.2436 44.4068 11.218 44.407 6.90024 40.0892C2.57254 35.7615 2.57192 28.7564 6.90024 24.4282C7.51164 23.8167 8.17816 23.288 8.89412 22.8431L8.36825 24.6775L10.9191 25.4087L12.4814 19.9598L8.05237 16.422L6.39622 18.4953L8.38638 20.085C7.15225 20.73 6.01312 21.5626 5.02383 22.5518C-0.340833 27.9163 -0.341718 36.6003 5.02383 41.9657C10.376 47.3179 19.0851 47.3183 24.4376 41.9657C29.8023 36.6012 29.8032 27.9172 24.4376 22.5518C22.346 20.4602 21.1941 17.6792 21.1941 14.7213C21.1941 11.7633 22.346 8.98234 24.4376 6.89081C28.7553 2.57311 35.7809 2.57293 40.0987 6.89081C45.1159 11.9079 44.2072 20.3443 38.1048 24.1369L38.6307 22.3025L36.0798 21.5712L34.5176 27.0202L38.9466 30.5581L40.6027 28.4847L38.6126 26.895C43.0247 24.5892 45.9959 20.0108 45.9959 14.7213Z" fill="#D4321E" stroke="#FDFDFD" stroke-width="0.5"/>
</svg>
