<svg width="48" height="36" viewBox="0 0 48 36" fill="none" xmlns="http://www.w3.org/2000/svg">
<path d="M44 22.4746V21.9999C44 13.9553 39.2893 6.85209 31.9463 3.68072L31.996 3.08297C32.0195 2.80463 31.9257 2.52825 31.7363 2.32322C31.5468 2.11716 31.2792 1.99997 30.9999 1.99997H27.4435C26.7495 0.810188 25.4735 0 24 0C22.5265 0 21.2505 0.810188 20.5564 1.99997H17C16.7207 1.99997 16.4531 2.11716 16.2637 2.32322C16.0742 2.52834 15.9804 2.80463 16.0039 3.08297L16.0537 3.68053C8.71153 6.85153 4.00003 13.9542 4.00003 22V22.4747C1.32263 23.4353 0 24.59 0 26C0 29.7676 11.2168 36 24 36C36.7832 36 48 29.7676 48 26C48 24.59 46.6774 23.4353 44 22.4746ZM6 22C6 14.9962 9.99197 8.81963 16.2334 5.83669L17.0039 15.0831C17.0468 15.6055 17.4844 16 17.998 16C18.0274 16 18.0547 15.9991 18.084 15.9961C18.6328 15.9502 19.043 15.4678 18.9961 14.917L18.086 4.00003H20.0001V21C20.0001 21.5527 20.4473 22 21.0001 22C21.5528 22 22.0001 21.5527 22.0001 21V4.00003C22.0001 2.89753 22.8967 2.00006 24.0001 2.00006C25.1035 2.00006 26.0001 2.89753 26.0001 4.00003V21C26.0001 21.5527 26.4473 22 27.0001 22C27.5528 22 28.0001 21.5527 28.0001 21V4.00003H29.9142L29.0041 14.917C28.9572 15.4678 29.3674 15.9502 29.9162 15.9961C29.9455 15.999 29.9728 16 30.0022 16C30.5158 16 30.9533 15.6055 30.9963 15.0831L31.7668 5.83669C38.0088 8.81906 42 14.9963 42 22V24.4278C40.4219 25.2892 34.6094 28 24 28C13.4453 28 7.59178 25.2852 6 24.4249V22ZM24 34C11.3769 34 1.99997 27.874 1.99997 26.0001C1.99997 25.8293 2.41913 25.2748 3.99994 24.6152V25C3.99994 25.3341 4.16794 25.6465 4.44525 25.8321C4.70119 26.0019 10.8476 30 24 30C37.1524 30 43.2988 26.0019 43.5547 25.8321C43.832 25.6465 44 25.334 44 25V24.615C45.5809 25.2746 45.9999 25.8293 45.9999 26C46 27.874 36.6231 34 24 34Z" fill="#D4321E"/>
</svg>
