<svg width="46" height="42" viewBox="0 0 46 42" fill="none" xmlns="http://www.w3.org/2000/svg">
<path d="M23 8.10938C20.8676 8.10938 19.1328 9.8442 19.1328 11.9766C19.1328 14.1089 20.8676 15.8438 23 15.8438C25.1324 15.8438 26.8672 14.1089 26.8672 11.9766C26.8672 9.8442 25.1324 8.10938 23 8.10938ZM23 13.2656C22.2892 13.2656 21.7109 12.6874 21.7109 11.9766C21.7109 11.2658 22.2892 10.6875 23 10.6875C23.7108 10.6875 24.2891 11.2658 24.2891 11.9766C24.2891 12.6874 23.7108 13.2656 23 13.2656Z" fill="#D4321E" stroke="#F2F2F3" stroke-width="0.6"/>
<path d="M43.7109 31.3125H39.8438V30.0234C39.8438 27.8911 38.1089 26.1562 35.9766 26.1562H24.2891V23.5781H25.5781C26.29 23.5781 26.8672 23.001 26.8672 22.2891V20.0959C27.294 19.892 27.7042 19.6542 28.0953 19.3839L29.9974 20.482C30.6138 20.8379 31.4023 20.6266 31.7582 20.0102L34.3364 15.5447C34.6924 14.9281 34.4812 14.1398 33.8646 13.7838L31.9891 12.701C32.0333 12.2221 32.0364 11.7649 31.9891 11.2523L33.8646 10.1695C34.4812 9.81352 34.6924 9.02513 34.3364 8.40861L31.7582 3.94313C31.4022 3.32652 30.6139 3.11537 29.9974 3.47133L28.0953 4.56944C27.7042 4.29908 27.294 4.06129 26.8672 3.85736V1.66406C26.8672 0.952156 26.29 0.375 25.5781 0.375H20.4219C19.71 0.375 19.1328 0.952156 19.1328 1.66406V3.85719C18.706 4.06112 18.2958 4.29891 17.9047 4.56927L16.0026 3.47116C15.386 3.11512 14.5976 3.32644 14.2418 3.94295L11.6636 8.40844C11.3076 9.02504 11.5188 9.81334 12.1354 10.1693L14.0109 11.2521C13.9667 11.731 13.9636 12.1882 14.0109 12.7008L12.1354 13.7837C11.5188 14.1396 11.3076 14.928 11.6636 15.5445L14.2418 20.01C14.5978 20.6266 15.3861 20.8377 16.0026 20.4818L17.9047 19.3837C18.2958 19.654 18.706 19.8918 19.1328 20.0958V22.2891C19.1328 23.001 19.71 23.5781 20.4219 23.5781H21.7109V26.1562H10.0234C7.89107 26.1562 6.15625 27.8911 6.15625 30.0234V31.3125H2.28906C1.57716 31.3125 1 31.8897 1 32.6016V40.3359C1 41.0478 1.57716 41.625 2.28906 41.625H12.6016C13.3135 41.625 13.8906 41.0478 13.8906 40.3359V32.6016C13.8906 31.8897 13.3135 31.3125 12.6016 31.3125H8.73438V30.0234C8.73438 29.3126 9.31265 28.7344 10.0234 28.7344H21.7109V31.3125H17.8438C17.1318 31.3125 16.5547 31.8897 16.5547 32.6016V40.3359C16.5547 41.0478 17.1318 41.625 17.8438 41.625H28.1562C28.8682 41.625 29.4453 41.0478 29.4453 40.3359V32.6016C29.4453 31.8897 28.8682 31.3125 28.1562 31.3125H24.2891V28.7344H35.9766C36.6874 28.7344 37.2656 29.3126 37.2656 30.0234V31.3125H33.3984C32.6865 31.3125 32.1094 31.8897 32.1094 32.6016V40.3359C32.1094 41.0478 32.6865 41.625 33.3984 41.625H43.7109C44.4228 41.625 45 41.0478 45 40.3359V32.6016C45 31.8897 44.4228 31.3125 43.7109 31.3125ZM11.3125 33.8906V39.0469H3.57812V33.8906H11.3125ZM26.8672 33.8906V39.0469H19.1328V33.8906H26.8672ZM21.7109 21V19.2373C21.7109 18.6918 21.3676 18.2054 20.8536 18.0227C20.1204 17.762 19.4436 17.3697 18.8423 16.8565C18.4271 16.5023 17.8339 16.4479 17.361 16.7207L15.83 17.6047L14.5409 15.372L16.052 14.4996C16.5244 14.2267 16.774 13.686 16.6751 13.1495C16.5148 12.2798 16.5148 11.6735 16.6751 10.8039C16.774 10.2673 16.5244 9.72655 16.052 9.45378L14.5409 8.58143L15.83 6.34869L17.361 7.23264C17.8336 7.50549 18.4269 7.45109 18.8423 7.09686C19.4436 6.58373 20.1204 6.19134 20.8536 5.93069C21.3675 5.74798 21.7109 5.26158 21.7109 4.71605V2.95312H24.2891V4.71579C24.2891 5.26123 24.6324 5.74764 25.1464 5.93043C25.8796 6.19108 26.5564 6.58347 27.1577 7.0966C27.573 7.45084 28.1662 7.50523 28.639 7.23238L30.17 6.34843L31.4591 8.58117L29.948 9.45352C29.4756 9.72637 29.226 10.2671 29.3249 10.8036C29.4852 11.6733 29.4852 12.2797 29.3249 13.1493C29.226 13.6859 29.4756 14.2266 29.948 14.4993L31.4591 15.3717L30.17 17.6044L28.639 16.7205C28.1662 16.4475 27.5731 16.5019 27.1577 16.8563C26.5564 17.3694 25.8796 17.7618 25.1464 18.0224C24.6325 18.2051 24.2891 18.6915 24.2891 19.2371V21H21.7109ZM42.4219 39.0469H34.6875V33.8906H42.4219V39.0469Z" fill="#D4321E" stroke="#F2F2F3" stroke-width="0.6"/>
</svg>
