<svg width="42" height="42" viewBox="0 0 42 42" fill="none" xmlns="http://www.w3.org/2000/svg">
<path d="M37.9292 4.07084C33.8347 -0.0236925 27.0967 -0.0235363 23.0022 4.07084L16.8537 10.2194C15.6637 11.4093 14.8186 12.8152 14.3169 14.3117C12.7804 14.8285 11.3742 15.6987 10.2194 16.8535L4.0709 23.002C-0.0236341 27.0965 -0.0236341 33.8345 4.0709 37.9291C8.1652 42.0234 14.9033 42.0238 18.998 37.9291L25.1465 31.7806C26.3364 30.5907 27.1815 29.1849 27.6833 27.6882C29.2198 27.1714 30.6259 26.3012 31.7807 25.1464L37.9292 18.9979C42.0238 14.9034 42.0238 8.16546 37.9292 4.07084ZM14.7927 22.2317C15.2952 23.2863 15.9817 24.2744 16.8537 25.1464C17.7033 25.9961 18.6923 26.6927 19.7682 27.2076L14.0223 32.9535C12.6706 34.3052 10.414 34.3052 9.06224 32.9535C7.6895 31.5806 7.68973 29.3505 9.06224 27.9778L14.7927 22.2317ZM23.488 30.1222L17.3395 36.2706C14.1569 39.4531 8.90708 39.4479 5.72958 36.2706C2.54957 33.0906 2.54957 27.8406 5.72958 24.6607L11.8781 18.5122C12.4441 17.9462 13.0875 17.4685 13.7844 17.0917C13.7345 17.9888 13.7982 18.8908 13.9755 19.7745C13.823 19.899 13.6764 20.0311 13.5368 20.1708L7.40395 26.3193C5.11458 28.6086 5.11442 32.3228 7.40395 34.6121C9.67239 36.8806 13.4126 36.8806 15.6811 34.6121L21.8296 28.4637C24.0958 26.1974 24.1325 22.4738 21.8296 20.1709C20.9102 19.2515 20.608 17.9459 20.921 16.7716C21.8739 17.1812 22.7484 17.7725 23.4882 18.5123C26.6887 21.7131 26.6887 26.9213 23.488 30.1222ZM27.2075 19.7683C26.705 18.7138 26.0185 17.7256 25.1466 16.8536C24.2969 16.0039 23.3079 15.3073 22.232 14.7924L27.9779 9.04655C29.3296 7.69483 31.5862 7.69483 32.938 9.04655C34.3108 10.4194 34.3262 12.6497 32.9536 14.0222L27.2075 19.7683ZM36.2707 17.3394L30.1222 23.4879C29.5562 24.0539 28.9128 24.5316 28.2159 24.9084C28.2658 24.0113 28.2021 23.1093 28.0248 22.2256C28.1772 22.1011 28.3239 21.969 28.4635 21.8293L34.612 15.6808C36.8805 13.4123 36.8805 9.65647 34.612 7.38796C32.3436 5.11952 28.5877 5.11952 26.3193 7.38796L20.1708 13.5365C17.9047 15.8026 17.8678 19.5263 20.1708 21.8293C21.0901 22.7487 21.3923 24.0543 21.0794 25.2286C20.1265 24.8189 19.2519 24.2277 18.5122 23.4879C15.3114 20.287 15.3114 15.0788 18.5122 11.878L24.6607 5.72952C27.8408 2.54959 33.0905 2.54951 36.2706 5.72952C39.4507 8.90952 39.4507 14.1594 36.2707 17.3394Z" fill="#D4321E" stroke="#F2F2F3" stroke-width="0.3"/>
<path d="M35.0981 33.4395L33.4395 31.7809C32.9815 31.3231 32.2389 31.323 31.781 31.7809C31.323 32.239 31.323 32.9815 31.781 33.4395L33.4396 35.098C33.8975 35.556 34.6401 35.556 35.0981 35.098C35.5561 34.64 35.5561 33.8975 35.0981 33.4395Z" fill="#D4321E" stroke="#F2F2F3" stroke-width="0.3"/>
<path d="M10.2187 8.56059L8.5601 6.90207C8.10213 6.4441 7.35955 6.4441 6.90158 6.90207C6.44361 7.36012 6.44361 8.10262 6.90158 8.56059L8.56018 10.2191C9.01815 10.6772 9.76073 10.6772 10.2187 10.2191C10.6767 9.76114 10.6767 9.01864 10.2187 8.56059Z" fill="#D4321E" stroke="#F2F2F3" stroke-width="0.3"/>
<path d="M39.4287 24.7234L37.1631 24.1164C36.5383 23.9488 35.8944 24.32 35.7268 24.9456C35.5591 25.5713 35.9305 26.2143 36.5561 26.382L38.8217 26.989C39.4472 27.1566 40.0904 26.7854 40.258 26.1597C40.4257 25.5342 40.0544 24.8912 39.4287 24.7234Z" fill="#D4321E" stroke="#F2F2F3" stroke-width="0.3"/>
<path d="M5.44384 15.6179L3.17821 15.0109C2.55353 14.8434 1.90954 15.2145 1.74188 15.8402C1.57431 16.4658 1.94563 17.1089 2.57126 17.2765C5.05853 17.9429 4.93572 17.9237 5.14111 17.9237C5.65884 17.9237 6.13283 17.5782 6.27314 17.0542C6.4408 16.4286 6.06947 15.7855 5.44384 15.6179Z" fill="#D4321E" stroke="#F2F2F3" stroke-width="0.3"/>
<path d="M26.9892 38.8227L26.3821 36.557C26.2143 35.9314 25.5711 35.56 24.9457 35.7278C24.3201 35.8955 23.9488 36.5385 24.1164 37.1641L24.7235 39.4298C24.8913 40.0556 25.5346 40.4267 26.1599 40.259C26.7856 40.0914 27.1568 39.4484 26.9892 38.8227Z" fill="#D4321E" stroke="#F2F2F3" stroke-width="0.3"/>
<path d="M17.8827 4.8363L17.2756 2.57067C17.1079 1.94505 16.4651 1.57387 15.8392 1.74137C15.2136 1.90903 14.8423 2.55208 15.01 3.1777L15.6171 5.44341C15.7848 6.06919 16.428 6.44036 17.0534 6.27263C17.6791 6.10497 18.0503 5.46193 17.8827 4.8363Z" fill="#D4321E" stroke="#F2F2F3" stroke-width="0.3"/>
</svg>
