<svg width="16" height="16" viewBox="0 0 16 16" fill="none" xmlns="http://www.w3.org/2000/svg">
<path d="M7.41466 12.4472C7.49151 12.5241 7.58274 12.5851 7.68315 12.6266C7.78357 12.6682 7.89118 12.6897 7.99987 12.6897C8.10855 12.6897 8.21617 12.6682 8.31658 12.6266C8.41699 12.5851 8.50823 12.5241 8.58508 12.4472L11.7061 9.32624C11.8613 9.17104 11.9485 8.96054 11.9485 8.74105C11.9485 8.52156 11.8613 8.31106 11.7061 8.15586C11.5509 8.00066 11.3404 7.91347 11.1209 7.91347C10.9014 7.91347 10.6909 8.00066 10.5357 8.15586L8.82745 9.8641V0.827586C8.82745 0.608097 8.74026 0.397597 8.58506 0.242394C8.42986 0.0871919 8.21936 0 7.99987 0C7.78038 0 7.56988 0.0871919 7.41468 0.242394C7.25947 0.397597 7.17228 0.608097 7.17228 0.827586V9.8641L5.46404 8.15586C5.30884 8.00066 5.09834 7.91347 4.87885 7.91347C4.65936 7.91347 4.44886 8.00066 4.29366 8.15586C4.13846 8.31106 4.05127 8.52156 4.05127 8.74105C4.05127 8.96054 4.13846 9.17104 4.29366 9.32624L7.41466 12.4472Z" fill="#D4321E"/>
<path d="M15.1724 7.17188C14.9529 7.17188 14.7424 7.25907 14.5872 7.41427C14.432 7.56947 14.3448 7.77997 14.3448 7.99946V14.3443H1.65517V7.99946C1.65517 7.77997 1.56798 7.56947 1.41278 7.41427C1.25758 7.25907 1.04708 7.17188 0.827586 7.17188C0.608097 7.17188 0.397597 7.25907 0.242394 7.41427C0.0871919 7.56947 0 7.77997 0 7.99946V14.6202C0 14.986 0.14532 15.3368 0.403991 15.5955C0.662661 15.8541 1.01349 15.9995 1.37931 15.9995H14.6207C14.9865 15.9995 15.3373 15.8541 15.596 15.5955C15.8547 15.3368 16 14.986 16 14.6202V7.99946C16 7.77997 15.9128 7.56947 15.7576 7.41427C15.6024 7.25907 15.3919 7.17188 15.1724 7.17188Z" fill="#D4321E"/>
</svg>
