<svg width="17" height="12" viewBox="0 0 17 12" fill="none" xmlns="http://www.w3.org/2000/svg">
<path d="M11.2689 5.93042L17 9.55355V2.1543L11.2689 5.93042Z" fill="#BABCC0"/>
<path d="M0 2.1543V9.55355L5.73112 5.93042L0 2.1543Z" fill="#BABCC0"/>
<path d="M15.9374 0H1.06236C0.532176 0 0.111426 0.39525 0.0317383 0.904187L8.49986 6.48337L16.968 0.904187C16.8883 0.39525 16.4675 0 15.9374 0Z" fill="#BABCC0"/>
<path d="M10.2957 6.57333L8.79224 7.56358C8.70299 7.62202 8.60206 7.6507 8.50006 7.6507C8.39806 7.6507 8.29712 7.62202 8.20787 7.56358L6.70443 6.57227L0.0340576 10.7915C0.11587 11.2961 0.534495 11.6882 1.06256 11.6882H15.9376C16.4656 11.6882 16.8842 11.2961 16.9661 10.7915L10.2957 6.57333Z" fill="#BABCC0"/>
</svg>
