<svg width="26" height="28" viewBox="0 0 26 28" fill="none" xmlns="http://www.w3.org/2000/svg">
<circle cx="13" cy="13" r="13" fill="white"/>
<path d="M14.6044 14.92H12.3964L11.8684 11V7.8H15.1324V11L14.6044 14.92ZM11.8364 17.56C11.8364 17.1013 11.9964 16.712 12.3164 16.392C12.6471 16.0613 13.0418 15.896 13.5004 15.896C13.9591 15.896 14.3484 16.0613 14.6684 16.392C14.9991 16.712 15.1644 17.1013 15.1644 17.56C15.1644 18.0293 14.9991 18.424 14.6684 18.744C14.3484 19.064 13.9591 19.224 13.5004 19.224C13.0418 19.224 12.6471 19.064 12.3164 18.744C11.9964 18.424 11.8364 18.0293 11.8364 17.56Z" fill="#D0443F"/>
</svg>
