<svg width="66" height="34" viewBox="0 0 66 34" fill="none" xmlns="http://www.w3.org/2000/svg">
<path d="M11.8796 9.19922H14.2554V27.2849H6.19816C5.42484 27.2849 4.72082 26.8391 4.39018 26.1401L1.86208 20.7949C1.3871 19.7907 1.82155 18.5918 2.8296 18.125L7.80734 15.8198C8.25342 15.6132 8.60779 15.2496 8.8028 14.7983L10.9617 9.80254C11.1199 9.43633 11.4807 9.19922 11.8796 9.19922Z" stroke="#D4321E" stroke-width="1.8"/>
<path d="M14.2552 27.2861H13.3552V28.1861H14.2552V27.2861ZM30.8343 0.1C30.3373 0.1 29.9343 0.502944 29.9343 1C29.9343 1.49706 30.3373 1.9 30.8343 1.9V0.1ZM25.5448 1.9C26.0418 1.9 26.4448 1.49706 26.4448 1C26.4448 0.502944 26.0418 0.1 25.5448 0.1V1.9ZM58.5134 9V25.2861H60.3134V9H58.5134ZM57.4134 26.3861H14.2552V28.1861H57.4134V26.3861ZM15.1552 27.2861V3H13.3552V27.2861H15.1552ZM30.8343 1.9H51.4134V0.1H30.8343V1.9ZM16.2552 1.9H25.5448V0.1H16.2552V1.9ZM58.5134 25.2861C58.5134 25.8936 58.0209 26.3861 57.4134 26.3861V28.1861C59.015 28.1861 60.3134 26.8877 60.3134 25.2861H58.5134ZM60.3134 9C60.3134 4.08467 56.3288 0.1 51.4134 0.1V1.9C55.3346 1.9 58.5134 5.07878 58.5134 9H60.3134ZM15.1552 3C15.1552 2.39249 15.6477 1.9 16.2552 1.9V0.1C14.6536 0.1 13.3552 1.39838 13.3552 3H15.1552Z" fill="#D4321E"/>
<path d="M14.2552 23.6914V22.7914H13.3552V23.6914H14.2552ZM59.4134 23.6914H60.3134V22.7914H59.4134V23.6914ZM14.2552 27.2861H13.3552V28.1861H14.2552V27.2861ZM54.8635 33.4225C55.215 33.774 55.7848 33.774 56.1363 33.4225C56.4877 33.071 56.4877 32.5012 56.1363 32.1497L54.8635 33.4225ZM14.2552 24.5914H59.4134V22.7914H14.2552V24.5914ZM58.5134 23.6914V25.2861H60.3134V23.6914H58.5134ZM15.1552 27.2861V23.6914H13.3552V27.2861H15.1552ZM57.4134 26.3861H49.9999V28.1861H57.4134V26.3861ZM49.9999 26.3861H14.2552V28.1861H49.9999V26.3861ZM49.3635 27.9225L54.8635 33.4225L56.1363 32.1497L50.6363 26.6497L49.3635 27.9225ZM58.5134 25.2861C58.5134 25.8936 58.0209 26.3861 57.4134 26.3861V28.1861C59.015 28.1861 60.3134 26.8877 60.3134 25.2861H58.5134Z" fill="#D4321E"/>
<path d="M59.4132 20.0977H63.0079C64.0005 20.0977 64.8052 20.9024 64.8052 21.895V21.895C64.8052 22.8876 64.0005 23.6923 63.0079 23.6923H59.4132V20.0977Z" stroke="#D4321E" stroke-width="1.8"/>
<circle cx="28.5" cy="27.5" r="5.6" fill="#F2F2F3" stroke="#D4321E" stroke-width="1.8"/>
<circle cx="28.5" cy="27.5" r="1.6" stroke="#D4321E" stroke-width="1.8"/>
<rect x="38" y="9" width="13.0432" height="1.70128" rx="0.5" fill="#D4321E" stroke="#D4321E" stroke-width="0.2"/>
<rect x="52.8579" y="9" width="1.70128" height="1.70128" rx="0.5" fill="#D4321E" stroke="#D4321E" stroke-width="0.2"/>
</svg>
