<svg width="45" height="45" viewBox="0 0 45 45" fill="none" xmlns="http://www.w3.org/2000/svg">
<path d="M42.9355 9.74755C43.5152 9.74755 43.9895 9.27328 44 8.69363V2.06446C44 1.47426 43.5257 1 42.9355 1H36.3064C35.7267 1 35.2525 1.47426 35.2525 2.06446V4.37255H9.74755V2.06446C9.74755 1.4848 9.27328 1.01054 8.69363 1H2.06446C1.4848 1 1.01054 1.47426 1 2.06446V8.69363C1 9.27328 1.47426 9.74755 2.06446 9.74755H4.37255V35.2525H2.06446C1.4848 35.2525 1.01054 35.7267 1 36.3064V42.9355C1 43.5152 1.47426 43.9895 2.06446 44H8.69363C9.27328 44 9.74755 43.5257 9.74755 42.9355V40.6275H35.2525V42.9355C35.2525 43.5152 35.7267 43.9895 36.3064 44H42.9355C43.5152 44 43.9895 43.5257 44 42.9355V36.3064C44 35.7267 43.5257 35.2525 42.9355 35.2525H40.6275V9.74755H42.9355ZM3.10784 7.63971V3.10784H7.63971V7.63971H3.10784ZM7.63971 41.8922H3.10784V37.3603H7.63971V41.8922ZM35.2525 36.3064V38.5196H9.74755V36.3064C9.74755 35.7267 9.27328 35.2525 8.69363 35.2525H6.48039V9.74755H8.69363C9.27328 9.74755 9.74755 9.27328 9.74755 8.69363V6.48039H35.2525V8.69363C35.2525 9.27328 35.7267 9.74755 36.3064 9.74755H38.5196V35.2525H36.3064C35.7267 35.2525 35.2525 35.7267 35.2525 36.3064ZM41.8922 37.3603V41.8922H37.3603V37.3603H41.8922ZM37.3603 7.63971V3.10784H41.8922V7.63971H37.3603Z" fill="#D4321E" stroke="#F2F2F3" stroke-width="0.2"/>
<mask id="path-2-inside-1" fill="white">
<rect x="10" y="10" width="25" height="25" rx="1"/>
</mask>
<rect x="10" y="10" width="25" height="25" rx="1" stroke="#D4321E" stroke-width="4" mask="url(#path-2-inside-1)"/>
</svg>
