<svg width="51" height="51" viewBox="0 0 51 51" fill="none" xmlns="http://www.w3.org/2000/svg">
<path d="M49.7196 16.9756L44.5087 11.7646C44.2744 11.5304 43.9356 11.4341 43.6132 11.5097C43.2906 11.5854 43.0302 11.8225 42.9248 12.1365C42.7666 12.6071 42.5071 13.0252 42.1534 13.3788C40.9038 14.6285 38.8706 14.6284 37.6211 13.3788C37.0158 12.7735 36.6824 11.9687 36.6824 11.1126C36.6824 10.2566 37.0157 9.45179 37.6211 8.84647C37.9748 8.49275 38.3928 8.23321 38.8632 8.07511C39.1772 7.96955 39.4144 7.70923 39.4902 7.38671C39.5659 7.0642 39.4695 6.72541 39.2352 6.49122L34.0243 1.28029C33.6506 0.90657 33.0446 0.90657 32.6708 1.28029L28.3883 5.56281C28.218 5.32001 28.0254 5.09109 27.8115 4.8771C25.8157 2.88131 22.5681 2.88131 20.5723 4.8771C18.5765 6.87289 18.5765 10.1205 20.5723 12.1163C20.7863 12.3303 21.0152 12.5228 21.2581 12.6931L11.7646 22.1865C11.5304 22.4208 11.434 22.7595 11.5097 23.082C11.5855 23.4045 11.8225 23.6649 12.1365 23.7704C12.6071 23.9284 13.0251 24.188 13.3788 24.5417C14.6284 25.7913 14.6284 27.8245 13.3788 29.074C12.7735 29.6793 11.9687 30.0127 11.1126 30.0127C10.2566 30.0127 9.45179 29.6794 8.84647 29.074C8.49285 28.7203 8.2333 28.3023 8.07511 27.8317C7.96955 27.5177 7.70914 27.2806 7.38671 27.2049C7.0642 27.1294 6.7255 27.2256 6.49122 27.4598L1.28029 32.6709C0.90657 33.0446 0.90657 33.6506 1.28029 34.0244L16.9756 49.7197C17.155 49.8991 17.3985 50 17.6523 50C17.9061 50 18.1496 49.8991 18.329 49.7197L23.5399 44.5088C23.7742 44.2745 23.8706 43.9358 23.7949 43.6133C23.7191 43.2907 23.482 43.0303 23.168 42.9249C22.6975 42.7668 22.2795 42.5073 21.9258 42.1535C21.3205 41.5482 20.9872 40.7434 20.9872 39.8874C20.9872 39.0314 21.3205 38.2265 21.9258 37.6213C23.1754 36.3717 25.2085 36.3717 26.458 37.6213C26.8117 37.975 27.0713 38.393 27.2294 38.8634C27.335 39.1774 27.5953 39.4146 27.9178 39.4904C28.2403 39.5659 28.579 39.4697 28.8133 39.2354L38.8263 29.2224C39.2 28.8487 39.2 28.2427 38.8263 27.8689C38.4526 27.4951 37.8466 27.4952 37.4728 27.8689L33.3476 31.9941L29.7418 28.3883C29.9846 28.218 30.2135 28.0254 30.4275 27.8116C31.3943 26.8447 31.9268 25.5592 31.9268 24.192C31.9268 22.8247 31.3943 21.5392 30.4275 20.5724C28.4317 18.5766 25.1842 18.5766 23.1883 20.5724C22.9743 20.7864 22.7818 21.0153 22.6115 21.2582L19.0057 17.6523L23.5399 13.1181C23.7741 12.8838 23.8706 12.5451 23.7949 12.2226C23.7192 11.9001 23.482 11.6397 23.168 11.5342C22.6975 11.376 22.2794 11.1165 21.9258 10.7627C20.6762 9.51324 20.6762 7.48003 21.9258 6.23053C23.1755 4.98103 25.2086 4.98103 26.4581 6.23053C26.8119 6.58425 27.0714 7.00218 27.2295 7.47266C27.335 7.78675 27.5954 8.02391 27.9179 8.09961C28.2404 8.17521 28.5791 8.07893 28.8134 7.84465L33.3476 3.31044L36.9534 6.91624C36.7106 7.08649 36.4818 7.27905 36.2677 7.49304C35.3008 8.45993 34.7683 9.74532 34.7683 11.1126C34.7683 12.4799 35.3008 13.7654 36.2676 14.7322C37.2657 15.7302 38.5762 16.2292 39.8872 16.2291C41.1978 16.229 42.5089 15.73 43.5067 14.7322C43.7207 14.5182 43.9133 14.2893 44.0835 14.0464L47.6894 17.6523L43.5635 21.7782C43.1898 22.152 43.1898 22.758 43.5635 23.1318C43.7504 23.3187 43.9953 23.4121 44.2402 23.4121C44.4851 23.4121 44.7301 23.3187 44.9169 23.1318L49.7196 18.3291C50.0933 17.9553 50.0933 17.3493 49.7196 16.9756ZM23.082 23.7949C23.4045 23.7191 23.6649 23.482 23.7704 23.168C23.9285 22.6975 24.188 22.2795 24.5418 21.9258C25.7913 20.6762 27.8245 20.6762 29.074 21.9258C29.6793 22.5311 30.0126 23.3359 30.0126 24.192C30.0126 25.0479 29.6793 25.8528 29.0739 26.4581C28.7202 26.8118 28.3022 27.0714 27.8317 27.2295C27.5177 27.335 27.2806 27.5954 27.2048 27.9179C27.1291 28.2404 27.2255 28.5792 27.4597 28.8134L31.9942 33.3476L28.3884 36.9534C28.2181 36.7106 28.0255 36.4817 27.8116 36.2677C25.8158 34.2719 22.5684 34.2719 20.5724 36.2677C18.5766 38.2635 18.5766 41.5111 20.5724 43.5068C20.7865 43.7208 21.0153 43.9134 21.2582 44.0836L17.6523 47.6894L3.31044 33.3476L6.91624 29.7418C7.08659 29.9847 7.27905 30.2135 7.49304 30.4275C8.45993 31.3944 9.74532 31.9269 11.1126 31.9269C12.4799 31.9269 13.7654 31.3944 14.7322 30.4276C16.728 28.4318 16.728 25.1842 14.7322 23.1883C14.5182 22.9743 14.2893 22.7819 14.0465 22.6116L17.6523 19.0057L22.1865 23.5399C22.4208 23.7742 22.7594 23.8706 23.082 23.7949Z" fill="#D4321E" stroke="#D4321E" stroke-width="0.3"/>
<path d="M40.4867 24.8564C40.1311 25.2474 40.16 25.8528 40.5511 26.2083C40.7345 26.375 40.9648 26.4572 41.1946 26.4572C41.4548 26.4572 41.7142 26.3517 41.903 26.144L41.9035 26.1435C42.259 25.7525 42.2299 25.1474 41.8389 24.7919C41.4478 24.4362 40.8423 24.4653 40.4867 24.8564Z" fill="#D4321E" stroke="#D4321E" stroke-width="0.3"/>
</svg>
