<svg width="45" height="47" viewBox="0 0 45 47" fill="none" xmlns="http://www.w3.org/2000/svg">
<path d="M41.5033 26.7778C41.2014 26.4709 41.0559 26.0531 41.104 25.6315C41.2655 24.2164 41.2655 22.7828 41.104 21.3677C41.0559 20.9461 41.2014 20.5284 41.5033 20.2214L42.9912 18.7094C44.3172 17.3593 44.5827 15.2727 43.637 13.6356L41.6627 10.2137C40.7169 8.57654 38.7768 7.76349 36.9429 8.23698L34.8907 8.7697C34.4727 8.87812 34.0375 8.79484 33.6963 8.54136C32.5503 7.68979 31.3077 6.97114 30.0029 6.40532C29.6152 6.23722 29.327 5.90244 29.2121 5.48692L28.6483 3.44674C28.1422 1.62313 26.4682 0.349609 24.5773 0.349609H20.6269C18.7331 0.349609 17.0588 1.62376 16.5558 3.4471L15.991 5.48701C15.8759 5.90226 15.5877 6.23685 15.2003 6.40478C13.895 6.97069 12.652 7.68952 11.5058 8.54127C11.1645 8.79493 10.7291 8.87803 10.3113 8.76961L8.25786 8.23662C6.42684 7.76403 4.48712 8.57672 3.54159 10.2136L1.56516 13.6351C0.618632 15.2736 0.885309 17.3605 2.21345 18.7096L3.69921 20.2207C4.00097 20.5277 4.14638 20.9453 4.09819 21.3666C3.9365 22.7823 3.9365 24.2168 4.09819 25.6326C4.14638 26.0537 4.00097 26.4713 3.69921 26.7783L2.2139 28.2889C0.885399 29.6385 0.618632 31.7255 1.56516 33.364L3.54159 36.7854C4.48703 38.4224 6.42675 39.2355 8.25886 38.7622L10.3112 38.2295C10.7291 38.1212 11.1645 38.2044 11.5057 38.4579C12.652 39.3096 13.895 40.0284 15.2001 40.5943C15.5876 40.7623 15.8758 41.097 15.9908 41.512L16.5555 43.5511C17.0588 45.3755 18.7331 46.6496 20.6269 46.6496H24.5773C26.4682 46.6496 28.1423 45.3761 28.6486 43.5517L29.2121 41.5124C29.3271 41.0968 29.6152 40.7621 30.0029 40.594C31.3077 40.0282 32.5503 39.3095 33.6963 38.4579C34.0375 38.2044 34.473 38.121 34.8906 38.2296L36.9441 38.7626C38.7768 39.2356 40.7171 38.4228 41.663 36.7852L43.6368 33.3641C44.5828 31.7266 44.3172 29.64 42.9906 28.2893L41.5033 26.7778ZM42.0704 32.4598L40.0966 35.8809C39.5558 36.8174 38.4449 37.2825 37.3973 37.0116L35.3449 36.4789C34.3947 36.2326 33.4006 36.4245 32.6176 37.0063C31.5828 37.7752 30.4609 38.424 29.2834 38.9346C28.3916 39.3214 27.7301 40.0853 27.4689 41.0306L26.9056 43.069C26.6159 44.1122 25.6585 44.841 24.5773 44.841H20.6269C19.5438 44.841 18.5866 44.1129 18.2989 43.0694L17.7339 41.0293C17.4723 40.085 16.8112 39.3215 15.9197 38.9351C14.7417 38.4243 13.6194 37.7754 12.5844 37.0063C12.025 36.5906 11.358 36.3739 10.676 36.3739C10.4033 36.3739 10.1282 36.4085 9.85684 36.4789L7.80553 37.0113C6.75817 37.2822 5.64833 36.8171 5.10747 35.8809L3.13113 32.4594C2.59009 31.5228 2.74283 30.3296 3.50298 29.5574L4.98874 28.0463C5.67519 27.3481 6.00544 26.3934 5.89493 25.4271C5.7488 24.1478 5.7488 22.8515 5.89493 21.5721C6.00544 20.6057 5.6751 19.651 4.98874 18.9528L3.50253 17.4413C2.74283 16.6695 2.59 15.4763 3.13113 14.5397L5.10756 11.1182C5.64824 10.1822 6.75718 9.71695 7.80454 9.98752L9.85693 10.5202C10.8072 10.7667 11.8014 10.5748 12.5843 9.99285C13.6193 9.22375 14.7415 8.57482 15.9197 8.06408C16.811 7.67758 17.4722 6.91417 17.7339 5.96972L18.299 3.92891C18.5866 2.88634 19.5438 2.1582 20.6269 2.1582H24.5773C25.6586 2.1582 26.616 2.88698 26.9053 3.92936L27.4688 5.96864C27.7301 6.9139 28.3915 7.67776 29.2833 8.06462C30.4608 8.57518 31.5827 9.22402 32.6175 9.99294C33.4004 10.5749 34.3945 10.7669 35.3449 10.5203L37.3961 9.98788C38.4449 9.71704 39.5557 10.1818 40.0963 11.1179L42.0706 14.5398C42.6115 15.4761 42.4595 16.6697 41.7014 17.4415L40.2142 18.953C39.5273 19.6512 39.1967 20.606 39.3071 21.573C39.4531 22.8518 39.4531 24.1475 39.3071 25.4263C39.1967 26.3932 39.5274 27.3481 40.2142 28.0463L41.7007 29.5571C42.4595 30.3295 42.6116 31.5231 42.0704 32.4598Z" fill="#D4321E" stroke="#D4321E" stroke-width="0.3"/>
<path d="M33.6312 16.76C33.188 16.9903 33.0153 17.5363 33.2456 17.9794C33.9788 19.3903 34.4139 20.8967 34.5456 22.4698H33.2849C32.7856 22.4698 32.3806 22.8747 32.3806 23.3741C32.3806 23.8734 32.7856 24.2783 33.2849 24.2783H34.5629C34.1786 30.2266 29.4373 35.0071 23.5055 35.4517V34.0579C23.5055 33.5585 23.1005 33.1536 22.6012 33.1536C22.1018 33.1536 21.6969 33.5585 21.6969 34.0579V35.4517C15.7651 35.0071 11.0237 30.2266 10.6394 24.2784H11.9174C12.4167 24.2784 12.8217 23.8735 12.8217 23.3741C12.8217 22.8748 12.4167 22.4698 11.9174 22.4698H10.6579C11.1557 16.6369 15.8474 11.9822 21.6969 11.5439V12.6902C21.6969 13.1896 22.1018 13.5945 22.6012 13.5945C23.1005 13.5945 23.5055 13.1896 23.5055 12.6902V11.5441C25.0967 11.6611 26.6215 12.0867 28.0491 12.8164C28.4937 13.0436 29.0386 12.8674 29.2659 12.4227C29.4933 11.978 29.3169 11.4333 28.8723 11.2059C26.9188 10.2075 24.8089 9.70117 22.6011 9.70117C14.9937 9.70117 8.80469 15.8902 8.80469 23.4976C8.80469 31.105 14.9938 37.2942 22.6012 37.2942C30.2086 37.2942 36.3976 31.1052 36.3976 23.4978C36.3976 21.29 35.8626 19.0935 34.8505 17.1456C34.6202 16.7024 34.0741 16.5299 33.6312 16.76Z" fill="#D4321E" stroke="#D4321E" stroke-width="0.3"/>
<path d="M22.6015 15.5781C22.1022 15.5781 21.6972 15.9831 21.6972 16.4824V23.1249L18.7272 26.0949C18.3741 26.448 18.3741 27.0206 18.7272 27.3739C18.9039 27.5504 19.1353 27.6387 19.3667 27.6387C19.5981 27.6387 19.8295 27.5504 20.0061 27.3739L23.2409 24.1391C23.4104 23.9695 23.5057 23.7395 23.5057 23.4997V16.4825C23.5058 15.9831 23.1009 15.5781 22.6015 15.5781Z" fill="#D4321E" stroke="#D4321E" stroke-width="0.3"/>
<path d="M30.8318 14.6799C31.0213 15.1343 31.5571 15.3583 32.013 15.1691C32.4676 14.9804 32.6906 14.4431 32.5022 13.988C32.3137 13.5328 31.7763 13.3103 31.3211 13.4988C30.8643 13.6879 30.6449 14.2236 30.8318 14.6799Z" fill="#D4321E" stroke="#D4321E" stroke-width="0.3"/>
</svg>
